<?xml version="1.0" encoding="utf-8"?>
<!-- Generator: Adobe Illustrator 22.0.1, SVG Export Plug-In . SVG Version: 6.00 Build 0)  -->
<svg version="1.1" id="Layer_1" xmlns="http://www.w3.org/2000/svg" xmlns:xlink="http://www.w3.org/1999/xlink" x="0px" y="0px"
	 viewBox="0 0 640 640" style="enable-background:new 0 0 640 640;" xml:space="preserve">
<style type="text/css">
	.st0{fill:#3F3F3F;}
</style>
<g>
	<path class="st0" d="M239.1,519.9c29.4,0,53.2,26.9,53.2,60.1c0,33.2-23.8,60.1-53.2,60.1c-29.4,0-53.2-26.9-53.2-60.1
		C185.9,546.7,209.8,519.9,239.1,519.9z"/>
	<path class="st0" d="M471.3,519.9c29.4,0,53.2,26.9,53.2,60.1c0,33.2-23.8,60.1-53.2,60.1c-29.4,0-53.2-26.9-53.2-60.1
		C418.1,546.7,441.9,519.9,471.3,519.9z"/>
	<path class="st0" d="M606.8,190.6c-68,0-328.4,0-328.4,0s-19.4,5-19.4,29c0,24.1,19.4,31.1,19.4,31.1h294.4L556.3,314
		c-80.6,0-289.3,0-289.3,0s-18.1,4.6-18.1,27c0,22.5,18.1,29,18.1,29H541h0.6l-15.5,59.1H227.4l-19.8-178.4l-6.4-60.2
		c0,0-5.8-55.6-9-78.5C188.8,89,137.8,60.2,28,1.8c-25.8-12.2-47.4,41.1,0,69l86.5,45.6c0,0,20.1,13.2,21.9,30.9
		c1.7,17.8,36.8,311.7,36.8,311.7s1.4,40.9,34.3,40.9c32.9,0,302.6,0,330.2,0c27.6,0,33-32.6,33-32.6l65.4-219.4
		C636.2,247.9,655.6,190.6,606.8,190.6z"/>
</g>
</svg>
